<svg viewBox="0 0 418 96" fill="none" xmlns="http://www.w3.org/2000/svg">
    <path fill-rule="evenodd" clip-rule="evenodd"
    d="M57.8451 74.9898L63.4863 64.961C64.3657 63.3976 64.0968 61.44 62.8284 60.1716C61.56 58.9032 59.6024 58.6343 58.039 59.5137L53.0705 62.3085L51.8541 57.9294C51.3732 56.1981 49.7968 55 48 55C46.2032 55 44.6268 56.1981 44.1459 57.9294L42.9295 62.3085L37.961 59.5137C36.3976 58.6343 34.44 58.9032 33.1716 60.1716C31.9032 61.44 31.6343 63.3976 32.5137 64.961L38.1549 74.9898C34.5275 76.9116 30.3909 78 26 78C11.6406 78 0 66.3594 0 52C0 42.1808 5.44321 33.6329 13.4768 29.2092C16.2364 12.6349 30.6427 0 48 0C65.3573 0 79.7636 12.6349 82.5232 29.2092C90.5568 33.6329 96 42.1808 96 52C96 66.3594 84.3594 78 70 78C65.6091 78 61.4725 76.9116 57.8451 74.9898Z"
    fill="#39AC7C" />
    <path fill-rule="evenodd" clip-rule="evenodd"
    d="M59.5098 62.1284L51.2046 66.8001L48.9635 58.7324C48.8433 58.2995 48.4492 58 48 58C47.5508 58 47.1567 58.2995 47.0365 58.7324L44.7955 66.8001L36.4903 62.1284C36.0994 61.9086 35.61 61.9758 35.2929 62.2929C34.9758 62.61 34.9086 63.0994 35.1284 63.4903L42.2152 76.089L37.0365 94.7324C36.9529 95.0335 37.0148 95.3563 37.2039 95.6051C37.393 95.8539 37.6875 96 38 96H58C58.3125 96 58.6071 95.8539 58.7962 95.6051C58.9853 95.3563 59.0472 95.0335 58.9635 94.7324L53.7848 76.089L60.8716 63.4903C61.0915 63.0994 61.0242 62.61 60.7071 62.2929C60.39 61.9758 59.9006 61.9086 59.5098 62.1284Z"
    fill="#005350" />
    <path
    d="M166.776 48.148C166.776 52.9273 165.771 57.193 163.761 60.945C161.751 64.6523 158.959 67.5333 155.386 69.588C151.813 71.6427 147.748 72.67 143.192 72.67C138.591 72.67 134.482 71.6203 130.864 69.521C127.246 67.4217 124.432 64.5183 122.422 60.811C120.457 57.059 119.474 52.8157 119.474 48.081C119.474 43.3463 120.457 39.1253 122.422 35.418C124.432 31.666 127.224 28.7403 130.797 26.641C134.415 24.5417 138.547 23.492 143.192 23.492C147.837 23.492 151.947 24.5417 155.52 26.641C159.093 28.6957 161.863 31.5767 163.828 35.284C165.838 38.9913 166.843 43.2347 166.843 48.014L166.776 48.148ZM160.076 48.148C160.076 42.386 158.58 37.8077 155.587 34.413C152.639 30.9737 148.463 29.254 143.058 29.254C139.44 29.254 136.358 30.058 133.812 31.666C131.266 33.274 129.323 35.5073 127.983 38.366C126.688 41.2247 126.04 44.4853 126.04 48.148C126.04 51.9447 126.732 55.2723 128.117 58.131C129.502 60.945 131.467 63.1337 134.013 64.697C136.604 66.2603 139.641 67.042 143.125 67.042C146.654 67.042 149.691 66.2603 152.237 64.697C154.783 63.089 156.726 60.8557 158.066 57.997C159.451 55.1383 160.143 51.8553 160.143 48.148H160.076Z"
    fill="#005350" />
    <path
    d="M199.466 67.712C199.778 67.7567 200.024 67.913 200.203 68.181C200.381 68.4043 200.471 68.6723 200.471 68.985V71.866H193.503C193.101 71.866 192.632 71.7767 192.096 71.598C191.783 71.5087 191.56 71.1513 191.426 70.526L190.756 67.31L188.076 69.521C187.316 70.1463 186.423 70.6823 185.396 71.129C184.413 71.5757 183.43 71.9107 182.448 72.134C181.554 72.3573 180.348 72.469 178.83 72.469C177.579 72.469 176.373 72.268 175.212 71.866C173.827 71.3747 172.822 70.8387 172.197 70.258C171.393 69.5433 170.723 68.6053 170.187 67.444C169.695 66.4167 169.45 65.0767 169.45 63.424C169.45 61.9947 169.807 60.6993 170.522 59.538C171.326 58.2427 172.532 57.126 174.14 56.188C175.926 55.1607 178.07 54.3567 180.572 53.776C183.162 53.1953 186.423 52.905 190.354 52.905V50.292C190.354 47.6567 189.773 45.6467 188.612 44.262C187.45 42.8773 185.775 42.185 183.587 42.185C182.157 42.185 180.929 42.386 179.902 42.788C178.74 43.2347 177.892 43.6367 177.356 43.994C177.088 44.1727 176.775 44.3737 176.418 44.597C176.105 44.7757 175.77 44.9767 175.413 45.2C174.921 45.5573 174.408 45.736 173.872 45.736C173.38 45.736 173.023 45.6467 172.8 45.468C172.532 45.2447 172.308 44.9767 172.13 44.664L171.058 42.788C172.8 41.0907 174.81 39.7507 177.088 38.768C179.142 37.8747 181.554 37.428 184.324 37.428C186.334 37.428 188.031 37.7407 189.416 38.366C190.934 39.036 192.163 39.8847 193.101 40.912C194.083 41.9393 194.843 43.2793 195.379 44.932C195.87 46.406 196.116 48.148 196.116 50.158V67.109C198.26 67.5557 199.376 67.8013 199.466 67.846V67.712ZM190.22 56.724C187.316 56.724 184.994 56.8803 183.252 57.193C181.554 57.5057 179.991 57.9747 178.562 58.6C177.311 59.1807 176.418 59.8507 175.882 60.61C175.346 61.414 175.078 62.2627 175.078 63.156C175.078 63.8707 175.234 64.63 175.547 65.434C175.815 66.104 176.217 66.64 176.753 67.042C177.289 67.444 177.869 67.7343 178.495 67.913C179.254 68.1363 179.991 68.248 180.706 68.248C181.599 68.248 182.537 68.1363 183.52 67.913C184.413 67.6897 185.239 67.3993 185.999 67.042C186.669 66.7293 187.406 66.238 188.21 65.568C188.656 65.2107 189.326 64.5853 190.22 63.692V56.724Z"
    fill="#005350" />
    <path
    d="M237.367 67.846C238.037 67.98 238.372 68.382 238.372 69.052V72H232.074C231.226 72 230.466 71.598 229.796 70.794L218.674 56.858C218.362 56.4113 218.027 56.121 217.669 55.987C217.312 55.853 216.798 55.786 216.128 55.786H214.52V67.109C214.788 67.109 215.57 67.2653 216.865 67.578L218.272 67.846C218.987 67.98 219.344 68.4043 219.344 69.119V72H203.666V69.119C203.666 68.4043 204.001 67.98 204.671 67.846L208.49 67.109V27.512C206.346 27.11 205.073 26.842 204.671 26.708C204.001 26.574 203.666 26.172 203.666 25.502V22.621H214.52V51.632H215.994C216.932 51.632 217.647 51.3193 218.138 50.694L225.776 42.52C225.642 42.52 225.508 42.4977 225.374 42.453C225.24 42.4083 225.106 42.386 224.972 42.386L223.9 42.185C223.186 42.051 222.828 41.6267 222.828 40.912V38.098H237.032V40.912C237.032 41.582 236.742 41.984 236.161 42.118L232.007 42.922L224.101 51.364C223.387 52.2127 222.739 52.8157 222.158 53.173C223.052 53.7537 223.722 54.446 224.168 55.25L233.548 67.176L235.29 67.444C236.452 67.712 237.166 67.846 237.434 67.846H237.367Z"
    fill="#005350" />
    <path
    d="M290.507 26.976C290.507 27.646 290.149 28.048 289.435 28.182L285.616 28.986V72.067H282.333C281.439 72.067 280.68 71.6873 280.055 70.928L252.25 34.748C252.339 35.5073 252.384 36.5347 252.384 37.83V67.176C253.634 67.3547 255.131 67.6227 256.873 67.98C257.498 68.114 257.811 68.516 257.811 69.186V72.067H241.865V69.186C241.865 68.516 242.2 68.114 242.87 67.98L246.689 67.176V28.986C244.545 28.584 243.272 28.316 242.87 28.182C242.2 28.048 241.865 27.6237 241.865 26.909V24.028H250.039C250.619 24.028 251.044 24.095 251.312 24.229C251.49 24.3183 251.825 24.6087 252.317 25.1L280.055 61.28C279.965 60.6547 279.921 59.5827 279.921 58.064V28.986C278.625 28.8073 277.598 28.651 276.839 28.517C276.079 28.3383 275.633 28.2267 275.499 28.182C274.784 28.048 274.427 27.646 274.427 26.976V24.028H290.507V26.976Z"
    fill="#005350" />
    <path
    d="M308.621 37.562C311.078 37.562 313.311 37.964 315.321 38.768C317.287 39.572 319.006 40.7333 320.48 42.252C321.865 43.6813 322.937 45.5127 323.696 47.746C324.456 49.9347 324.835 52.3467 324.835 54.982C324.835 57.6173 324.456 60.0293 323.696 62.218C322.937 64.4513 321.865 66.2827 320.48 67.712C319.006 69.2307 317.287 70.392 315.321 71.196C313.311 72 311.078 72.402 308.621 72.402C306.165 72.402 303.931 72 301.921 71.196C299.956 70.392 298.236 69.2307 296.762 67.712C295.422 66.3273 294.328 64.496 293.479 62.218C292.765 60.2973 292.407 57.8853 292.407 54.982C292.407 52.0787 292.765 49.6667 293.479 47.746C294.328 45.468 295.422 43.6367 296.762 42.252C298.236 40.7333 299.956 39.572 301.921 38.768C303.931 37.964 306.165 37.562 308.621 37.562ZM308.621 67.846C312.061 67.846 314.562 66.7293 316.125 64.496C317.778 62.1733 318.604 59.0243 318.604 55.049C318.604 51.0737 317.778 47.9247 316.125 45.602C314.562 43.3687 312.061 42.252 308.621 42.252C306.879 42.252 305.405 42.52 304.199 43.056C303.038 43.592 302.011 44.4407 301.117 45.602C300.269 46.7633 299.643 48.1033 299.241 49.622C298.795 51.4087 298.571 53.24 298.571 55.116C298.571 56.9027 298.795 58.6893 299.241 60.476C299.643 61.9947 300.269 63.3347 301.117 64.496C301.877 65.5233 302.904 66.3273 304.199 66.908C305.629 67.5333 307.103 67.846 308.621 67.846Z"
    fill="#005350" />
    <path
    d="M338.458 44.999C340.959 39.9517 344.398 37.428 348.776 37.428C350.518 37.428 352.059 37.83 353.399 38.634L352.662 43.123C352.528 43.7037 352.237 43.994 351.791 43.994C351.478 43.994 350.942 43.8823 350.183 43.659C349.423 43.4357 348.508 43.324 347.436 43.324C343.505 43.324 340.602 45.6913 338.726 50.426V67.176L342.545 67.913C343.215 68.047 343.55 68.4713 343.55 69.186V72H327.939V69.186C327.939 68.4713 328.274 68.047 328.944 67.913L332.763 67.176V42.989C330.619 42.587 329.346 42.319 328.944 42.185C328.274 42.051 327.939 41.6267 327.939 40.912V38.098H336.18C336.805 38.098 337.229 38.2097 337.453 38.433C337.676 38.6563 337.855 39.0807 337.989 39.706L338.391 44.999H338.458Z"
    fill="#005350" />
    <path
    d="M368.45 72.536C365.859 72.536 363.804 71.7767 362.286 70.258C360.856 68.8287 360.142 66.6847 360.142 63.826V43.056H356.055C355.653 43.056 355.34 42.9667 355.117 42.788C354.893 42.6093 354.782 42.2743 354.782 41.783V39.438L360.343 38.701L361.683 28.182C361.683 27.8247 361.817 27.5567 362.085 27.378C362.308 27.1993 362.621 27.11 363.023 27.11H366.038V38.768H375.753V43.123H366.038V63.491C366.038 64.965 366.373 66.037 367.043 66.707C367.713 67.377 368.628 67.712 369.79 67.712C370.281 67.712 370.839 67.6227 371.465 67.444C371.867 67.31 372.269 67.1313 372.671 66.908C372.805 66.8187 372.939 66.7293 373.073 66.64C373.207 66.5507 373.341 66.4613 373.475 66.372C373.832 66.1933 374.055 66.104 374.145 66.104C374.457 66.104 374.725 66.2827 374.949 66.64L376.691 69.454C375.485 70.4813 374.234 71.2407 372.939 71.732C371.465 72.268 369.968 72.536 368.45 72.536Z"
    fill="#005350" />
    <path
    d="M390.712 42.654C393.973 39.2593 397.591 37.562 401.566 37.562C405.184 37.562 407.999 38.7233 410.009 41.046C411.974 43.3687 412.957 46.4953 412.957 50.426V67.109C415.101 67.511 416.374 67.779 416.776 67.913C417.446 68.047 417.781 68.4713 417.781 69.186V72H406.993V50.426C406.993 45.0213 404.604 42.319 399.824 42.319C396.564 42.319 393.526 43.9047 390.712 47.076V67.176L391.517 67.31L394.465 67.913C395.179 68.047 395.536 68.4713 395.536 69.186V72H379.859V69.186C379.859 68.4713 380.216 68.047 380.931 67.913L384.682 67.176V27.579C382.136 27.177 380.662 26.909 380.26 26.775C379.546 26.641 379.189 26.2167 379.189 25.502V22.688H390.712V42.654Z"
    fill="#005350" />
</svg>